<?xml version="1.0" encoding="UTF-8"?>
<svg xmlns="http://www.w3.org/2000/svg" xmlns:xlink="http://www.w3.org/1999/xlink" width="37.5pt" height="37.499999pt" viewBox="0 0 37.5 37.499999" version="1.2">
<defs>
<clipPath id="clip1">
  <path d="M 0 0 L 37.007812 0 L 37.007812 37.007812 L 0 37.007812 Z M 0 0 "/>
</clipPath>
</defs>
<g id="surface1">
<g clip-path="url(#clip1)" clip-rule="nonzero">
<path style=" stroke:none;fill-rule:nonzero;fill:rgb(100%,100%,100%);fill-opacity:1;" d="M 0 0 L 37.5 0 L 37.5 45 L 0 45 Z M 0 0 "/>
<path style=" stroke:none;fill-rule:nonzero;fill:rgb(100%,100%,100%);fill-opacity:1;" d="M 0 0 L 37.5 0 L 37.5 37.5 L 0 37.5 Z M 0 0 "/>
<path style=" stroke:none;fill-rule:nonzero;fill:rgb(100%,100%,100%);fill-opacity:1;" d="M 0 0 L 37.5 0 L 37.5 37.5 L 0 37.5 Z M 0 0 "/>
<rect x="0" y="0" width="37.5" height="37.499999" style="fill:rgb(100%,83.918762%,0%);fill-opacity:1;stroke:none;"/>
</g>
<path style=" stroke:none;fill-rule:nonzero;fill:rgb(0%,0%,0.389099%);fill-opacity:1;" d="M 25.945312 29.703125 C 26.707031 30.941406 27.535156 32.128906 29.292969 32.128906 C 30.765625 32.128906 31.539062 31.394531 31.539062 30.378906 C 31.539062 29.167969 30.738281 28.734375 29.117188 28.03125 L 28.226562 27.648438 C 25.660156 26.5625 23.953125 25.195312 23.953125 22.3125 C 23.953125 19.65625 25.988281 17.636719 29.164062 17.636719 C 31.425781 17.636719 33.054688 18.421875 34.226562 20.472656 L 31.453125 22.242188 C 30.84375 21.15625 30.1875 20.726562 29.164062 20.726562 C 28.121094 20.726562 27.460938 21.382812 27.460938 22.242188 C 27.460938 23.304688 28.125 23.734375 29.648438 24.394531 L 30.539062 24.773438 C 33.566406 26.0625 35.269531 27.378906 35.269531 30.335938 C 35.269531 33.523438 32.753906 35.269531 29.375 35.269531 C 26.070312 35.269531 24.191406 33.613281 23.148438 31.558594 Z M 13.171875 29.792969 C 13.730469 30.789062 14.578125 31.558594 15.796875 31.558594 C 16.964844 31.558594 17.636719 31.097656 17.636719 29.308594 L 17.636719 17.636719 L 21.308594 17.636719 L 21.308594 29.871094 C 21.308594 33.582031 19.15625 35.269531 16.011719 35.269531 C 13.171875 35.269531 11.121094 33.347656 10.285156 31.558594 Z M 13.171875 29.792969 "/>
</g>
</svg>
